<?xml version="1.0" encoding="UTF-8"?>
<!DOCTYPE svg PUBLIC "-//W3C//DTD SVG 1.1//EN" "http://www.w3.org/Graphics/SVG/1.1/DTD/svg11.dtd">
<!-- Creator: CorelDRAW 2021 (64-Bit) -->
<svg xmlns="http://www.w3.org/2000/svg" xml:space="preserve" width="364.942mm" height="362.358mm" version="1.1" style="shape-rendering:geometricPrecision; text-rendering:geometricPrecision; image-rendering:optimizeQuality; fill-rule:evenodd; clip-rule:evenodd"
viewBox="0 0 7944.18 7887.92"
 xmlns:xlink="http://www.w3.org/1999/xlink"
 xmlns:xodm="http://www.corel.com/coreldraw/odm/2003">
 <defs>
  <style type="text/css">
   <![CDATA[
    .fil0 {fill:black}
   ]]>
  </style>
 </defs>
 <g id="Layer_x0020_1">
  <metadata id="CorelCorpID_0Corel-Layer"/>
  <path class="fil0" d="M3357.15 5118.93l-1010.35 -0.45c-18.04,-128.06 -5.93,-677.31 -5.93,-876.14l0.87 -239.84c4.97,-29.31 6.86,-22.95 14,-35.94l1000.42 0.45c0,-348.35 -30.34,-877 20.6,-1201.21 109.98,-699.96 532.52,-1119.4 1238.02,-1206.39 349,-43.03 774.08,11.69 1114.03,61.41 17.03,26.8 23.17,-41.06 21.29,126.73 -2.41,214.99 10.73,718.07 -5.22,859.25l-589.61 3c-691.77,31.8 -560.23,747.93 -560.23,1357.19l1103.26 0.1 -176.31 1146.95 -926.95 0.32 0.08 2773.56c1139.43,-190.18 1893.33,-756.93 2418.31,-1364.98 564.46,-653.79 1011.42,-1701.92 918.46,-2882.85 -156.89,-1993.14 -1844.06,-3657.96 -3973.5,-3639.94 -3139.85,26.57 -4910.46,3418.19 -3425.39,5947.29 111.39,189.7 269.84,432.92 396.76,566.63 44.24,46.62 59.52,79.55 101.41,122.59 44.18,45.38 81.32,78.14 121.36,119.05 234.93,240.05 502.12,446.37 799.48,628.67 364.31,223.34 912.96,438.74 1401.52,503.27l3.61 -2768.72z"/>
 </g>
</svg>
