<?xml version="1.0" standalone="no"?>
<!DOCTYPE svg PUBLIC "-//W3C//DTD SVG 20010904//EN"
 "http://www.w3.org/TR/2001/REC-SVG-20010904/DTD/svg10.dtd">
<svg version="1.0" xmlns="http://www.w3.org/2000/svg"
 width="1112.000000pt" height="1144.000000pt" viewBox="0 0 1112.000000 1144.000000"
 preserveAspectRatio="xMidYMid meet">

<g transform="translate(0.000000,1144.000000) scale(0.100000,-0.100000)"
fill="#000000" stroke="none">
<path d="M3145 10705 c-306 -28 -514 -73 -800 -175 -149 -53 -421 -187 -548
-272 -32 -21 -60 -38 -63 -38 -9 0 -168 -118 -264 -198 -137 -112 -286 -261
-393 -392 -93 -114 -197 -255 -197 -269 0 -4 -9 -16 -20 -26 -11 -10 -20 -21
-20 -26 0 -4 -17 -36 -38 -70 -47 -77 -133 -241 -152 -289 -7 -19 -24 -57 -36
-85 -78 -174 -160 -466 -195 -690 -37 -237 -39 -342 -39 -2640 0 -1389 4
-2286 10 -2360 16 -188 32 -306 60 -430 26 -113 43 -184 56 -225 8 -25 19 -61
25 -80 70 -231 200 -496 365 -745 331 -498 817 -892 1374 -1113 143 -57 225
-84 368 -122 153 -41 367 -74 581 -90 181 -13 4449 -14 4666 0 583 36 1055
196 1545 523 408 273 757 674 988 1135 64 128 148 335 182 452 12 41 26 86 30
100 14 45 44 180 59 265 22 130 32 216 41 363 14 210 13 4507 0 4679 -31 387
-88 637 -228 988 -46 115 -183 367 -269 497 -300 448 -680 785 -1161 1027 -66
34 -123 61 -126 61 -4 0 -28 9 -54 21 -76 34 -168 69 -232 88 -19 6 -56 17
-81 25 -66 21 -242 62 -324 75 -38 7 -81 14 -95 16 -14 3 -101 12 -195 20
-144 12 -509 14 -2425 14 -1742 -1 -2287 -4 -2395 -14z m4865 -940 c239 -35
412 -88 630 -194 204 -99 353 -204 524 -370 315 -307 510 -659 597 -1076 39
-187 38 -152 39 -2583 0 -1536 -4 -2368 -10 -2415 -72 -505 -277 -912 -631
-1252 -326 -313 -714 -498 -1186 -565 -47 -6 -879 -10 -2411 -10 -2450 0
-2382 -1 -2592 40 -155 29 -373 106 -510 178 -159 84 -254 146 -385 253 -88
72 -267 255 -326 334 -237 314 -372 644 -419 1020 -8 65 -10 744 -8 2470 l4
2380 22 105 c20 97 27 125 51 213 69 243 214 517 382 722 64 78 248 261 324
322 190 152 479 302 700 363 131 36 192 49 325 69 30 5 1119 9 2420 10 1981 0
2380 -2 2460 -14z"/>
<path d="M8149 8896 c-113 -39 -181 -78 -251 -144 -74 -70 -97 -106 -148 -232
-34 -82 -35 -89 -34 -210 1 -140 10 -182 61 -289 59 -125 206 -252 351 -304
47 -17 82 -21 197 -21 151 -1 150 -1 291 65 142 67 251 205 313 398 6 19 11
73 10 120 -1 228 -68 376 -228 504 -129 102 -228 136 -396 136 -78 0 -115 -5
-166 -23z"/>
<path d="M5295 8185 c-157 -17 -292 -41 -415 -74 -378 -101 -740 -289 -1020
-527 -266 -227 -430 -421 -609 -724 -48 -80 -171 -340 -171 -360 0 -6 -4 -18
-10 -28 -22 -39 -92 -276 -111 -377 -36 -193 -58 -401 -59 -550 0 -107 20
-344 39 -455 25 -146 90 -386 132 -487 9 -24 16 -40 46 -113 60 -148 182 -360
301 -525 142 -196 403 -453 606 -596 83 -58 211 -136 316 -191 107 -56 345
-154 435 -179 17 -4 48 -13 70 -19 208 -58 509 -100 721 -100 94 0 341 22 434
39 397 71 724 202 1047 419 274 184 538 449 722 724 198 296 338 638 400 978
7 36 16 88 21 115 25 137 34 374 21 552 -7 98 -16 196 -21 218 -4 22 -14 72
-20 110 -11 60 -37 170 -70 290 -54 199 -194 489 -342 709 -123 183 -332 412
-523 572 -146 123 -451 307 -620 374 -33 13 -64 27 -70 31 -15 10 -210 75
-301 99 -309 81 -642 108 -949 75z m510 -936 c263 -37 525 -142 747 -299 105
-74 302 -264 375 -360 164 -218 275 -459 322 -700 6 -30 15 -79 21 -108 15
-79 12 -412 -5 -507 -52 -296 -155 -538 -323 -765 -72 -96 -255 -280 -353
-353 -229 -170 -498 -282 -791 -327 -103 -16 -400 -13 -501 4 -121 21 -252 54
-302 75 -11 5 -47 19 -80 32 -365 140 -709 455 -889 814 -141 281 -190 487
-188 795 1 299 52 508 188 776 252 496 730 839 1289 924 134 20 345 20 490 -1z"/>
</g>
</svg>
