<?xml version="1.0" standalone="no"?>
<!DOCTYPE svg PUBLIC "-//W3C//DTD SVG 20010904//EN"
 "http://www.w3.org/TR/2001/REC-SVG-20010904/DTD/svg10.dtd">
<svg version="1.0" xmlns="http://www.w3.org/2000/svg"
 width="1536.000000pt" height="864.000000pt" viewBox="0 0 1536.000000 864.000000"
 preserveAspectRatio="xMidYMid meet">

<g transform="translate(0.000000,864.000000) scale(0.100000,-0.100000)"
fill="#000000" stroke="none">
<path d="M7455 8434 c-22 -2 -96 -9 -165 -15 -268 -23 -587 -88 -840 -170
-485 -158 -878 -396 -1225 -744 -715 -714 -1087 -1805 -1087 -3185 0 -1159
266 -2124 777 -2825 482 -660 1177 -1078 2047 -1230 235 -41 399 -56 678 -62
1126 -24 1951 277 2593 947 357 373 570 810 633 1302 22 177 15 482 -15 648
-122 675 -509 1174 -1165 1504 l-141 71 -7 95 c-10 136 -35 286 -69 429 -207
849 -819 1321 -1715 1321 -605 0 -1115 -242 -1451 -688 -40 -53 -53 -79 -47
-88 5 -8 137 -101 293 -208 l284 -194 34 46 c156 209 383 341 664 388 135 22
413 15 541 -15 391 -90 620 -341 717 -783 22 -103 35 -95 -120 -74 -274 38
-798 46 -1039 16 -633 -79 -1114 -369 -1337 -806 -103 -201 -137 -351 -137
-594 1 -132 5 -186 23 -270 100 -472 445 -836 951 -1004 408 -135 913 -123
1304 31 307 121 545 314 731 593 161 240 283 575 337 923 6 42 15 77 19 77 4
0 44 -27 90 -60 296 -211 467 -472 536 -817 13 -65 17 -136 17 -268 0 -194
-16 -303 -70 -465 -37 -113 -134 -304 -205 -405 -84 -118 -316 -351 -452 -452
-439 -327 -961 -473 -1689 -473 -787 0 -1408 196 -1889 598 -654 547 -1009
1529 -1009 2792 0 1294 370 2285 1055 2830 387 307 862 485 1458 545 192 20
576 19 769 -1 404 -41 748 -136 1058 -290 271 -135 467 -278 668 -489 233
-244 410 -530 552 -891 46 -119 120 -339 120 -360 0 -11 61 4 365 85 293 79
330 91 327 107 -2 11 -24 83 -48 161 -212 685 -608 1288 -1107 1686 -502 401
-1071 623 -1827 713 -127 15 -683 28 -785 18z m955 -4234 c124 -11 274 -32
358 -50 l52 -12 0 -40 c0 -131 -69 -448 -130 -602 -168 -418 -475 -615 -960
-616 -337 0 -638 130 -774 334 -108 163 -117 393 -23 570 37 69 117 160 187
211 141 104 375 181 620 205 115 11 541 11 670 0z"/>
</g>
</svg>
