<?xml version="1.0" encoding="UTF-8"?>
<!DOCTYPE svg PUBLIC "-//W3C//DTD SVG 1.1//EN" "http://www.w3.org/Graphics/SVG/1.1/DTD/svg11.dtd">
<!-- Creator: CorelDRAW 2021 (64-Bit) -->
<svg xmlns="http://www.w3.org/2000/svg" xml:space="preserve" width="297.032mm" height="343.055mm" version="1.1" style="shape-rendering:geometricPrecision; text-rendering:geometricPrecision; image-rendering:optimizeQuality; fill-rule:evenodd; clip-rule:evenodd"
viewBox="0 0 8917.21 10298.88"
 xmlns:xlink="http://www.w3.org/1999/xlink"
 xmlns:xodm="http://www.corel.com/coreldraw/odm/2003">
 <defs>
  <style type="text/css">
   <![CDATA[
    .fil0 {fill:black}
   ]]>
  </style>
 </defs>
 <g id="Layer_x0020_1">
  <metadata id="CorelCorpID_0Corel-Layer"/>
  <path class="fil0" d="M3671.89 5605.6l0.1 -1789.15c-1296.36,-97.17 -2316.68,317.92 -3035.61,1290.56 -1233.62,1668.98 -591.55,4027.81 1218.03,4877.42 1729.97,812.23 3385.71,-82.37 4087.61,-1168.99 500.72,-775.16 531.74,-1349.19 531.74,-2405.23 0,-987.11 0,-1974.22 0,-2961.33 192.61,76.97 419.48,331.83 1080.14,540.65 493.56,156.01 818.7,186.41 1359.02,234l4.29 -1751.64c-964.72,28.06 -1875.35,-649.42 -2233.16,-1443.52 -175.44,-389.35 -187.35,-559.63 -218.28,-1028.39l-1751.35 1.32c-44.06,630.23 -4.7,1411.78 -4.7,2060.3l0 4127.48c0,733.08 70.26,1242.06 -302.2,1755.6 -902.09,1243.83 -2975.98,421.53 -2650.26,-1228.2 94.73,-479.81 493.45,-941.12 965.75,-1095.41 397.29,-129.78 550.89,-89.98 948.87,-15.49z"/>
 </g>
</svg>
